Coordinates
version=1
nRows=54
nColumns=12
inDegrees=yes

Units are S.I. units (second, meters, Newtons, ...)
Angles are in degrees

endheader
time	SC_y	SC_z	SC_x	AC_y	AC_z	AC_x	GH_y	GH_z	GH_yy	EL_x	PS_y
       0.0              -31.44          19.97          30.71          32.46         0.7387         -7.826           27.7          35.69         -66.05          83.63          38.74
   0.04324              -31.44          19.97          30.71          32.46         0.7362         -7.827          27.71          35.69         -66.05          83.62          38.74
   0.08648              -31.44          19.97          30.71          32.47         0.7337         -7.829          27.72           35.7         -66.06          83.62          38.74
    0.1297              -31.44          19.98          30.71          32.47         0.7309          -7.83          27.73           35.7         -66.07          83.61          38.75
     0.173              -31.44          19.98          30.71          32.47          0.728         -7.832          27.74          35.71         -66.08          83.61          38.75
    0.2162              -31.44          19.98          30.71          32.48         0.7249         -7.834          27.76          35.71         -66.09           83.6          38.75
    0.2594              -31.45          19.98          30.71          32.48         0.7216         -7.836          27.77          35.72          -66.1           83.6          38.76
    0.3027              -31.45          19.99          30.72          32.48         0.7181         -7.838          27.79          35.73         -66.11          83.59          38.76
    0.3459              -31.45          19.99          30.72          32.49         0.7143          -7.84          27.81          35.74         -66.12          83.58          38.77
    0.3892              -31.45          19.99          30.72          32.49         0.7102         -7.843          27.82          35.74         -66.13          83.58          38.77
    0.4324              -31.45           20.0          30.72           32.5         0.7058         -7.845          27.84          35.75         -66.14          83.57          38.78
    0.4757              -31.46           20.0          30.72           32.5         0.7011         -7.848          27.86          35.76         -66.16          83.56          38.78
    0.5189              -31.46          20.01          30.72          32.51          0.696         -7.851          27.89          35.77         -66.17          83.55          38.79
    0.5621              -31.46          20.01          30.72          32.51         0.6905         -7.854          27.91          35.78         -66.19          83.54          38.79
    0.6054              -31.47          20.02          30.73          32.52         0.6846         -7.858          27.94          35.79         -66.21          83.53           38.8
    0.6486              -31.47          20.02          30.73          32.53         0.6782         -7.862          27.96          35.81         -66.23          83.52          38.81
    0.6919              -31.47          20.03          30.73          32.54         0.6712         -7.866           28.0          35.82         -66.25           83.5          38.82
    0.7351              -31.48          20.03          30.73          32.54         0.6636          -7.87          28.03          35.83         -66.27          83.49          38.83
    0.7783              -31.48          20.04          30.74          32.55         0.6552         -7.875          28.07          35.85         -66.29          83.48          38.84
    0.8216              -31.49          20.05          30.74          32.56         0.6461         -7.881          28.11          35.87         -66.32          83.46          38.85
    0.8648              -31.49          20.06          30.74          32.57         0.6361         -7.887          28.15          35.89         -66.35          83.44          38.86
    0.9081               -31.5          20.07          30.75          32.59         0.6251         -7.893           28.2          35.91         -66.38          83.42          38.87
    0.9513               -31.5          20.08          30.75           32.6          0.613           -7.9          28.25          35.93         -66.42           83.4          38.89
    0.9946              -31.51          20.09          30.76          32.62         0.5995         -7.909          28.31          35.96         -66.46          83.37          38.91
     1.038              -31.52           20.1          30.76          32.63         0.5845         -7.917          28.38          35.99          -66.5          83.35          38.92
     1.081              -31.53          20.12          30.77          32.65         0.5678         -7.927          28.45          36.02         -66.55          83.31          38.94
     1.124              -31.54          20.13          30.77          32.67         0.5491         -7.939          28.54          36.05         -66.61          83.28          38.97
     1.168              -31.55          20.15          30.78          32.69          0.528         -7.951          28.63           36.1         -66.67          83.24          38.99
     1.211              -31.56          20.17          30.79          32.72         0.5042         -7.965          28.73          36.14         -66.74           83.2          39.02
     1.254              -31.58          20.19           30.8          32.75         0.4772         -7.981          28.85          36.19         -66.82          83.15          39.05
     1.297              -31.59          20.22          30.81          32.78         0.4464           -8.0          28.99          36.25         -66.91          83.09          39.09
      1.34              -31.61          20.25          30.82          32.82          0.411         -8.021          29.15          36.32         -67.02          83.03          39.13
     1.384              -31.63          20.28          30.83          32.87         0.3701         -8.045          29.33           36.4         -67.14          82.95          39.18
     1.427              -31.66          20.32          30.85          32.92         0.3226         -8.073          29.54          36.49         -67.28          82.86          39.24
      1.47              -31.69          20.37          30.87          32.98         0.2671         -8.106          29.78           36.6         -67.45          82.76          39.31
     1.513              -31.72          20.43          30.89          33.06         0.2016         -8.145          30.07          36.73         -67.64          82.64          39.39
     1.557              -31.77          20.49          30.92          33.14         0.1238         -8.192          30.42          36.88         -67.87           82.5          39.48
       1.6              -31.81          20.57          30.95          33.25        0.03051         -8.247          30.83          37.06         -68.15          82.33           39.6
     1.643              -31.88          20.67          30.98          33.37       -0.08234         -8.315          31.33          37.28         -68.49          82.12          39.74
     1.686              -31.95          20.78          31.03          33.52        -0.2202         -8.397          31.94          37.54         -68.89          81.87           39.9
      1.73              -32.04          20.93          31.09          33.71        -0.3903         -8.498          32.69          37.87          -69.4          81.55          40.11
     1.773              -32.15          21.11          31.16          33.95        -0.6025         -8.624          33.63          38.28         -70.03          81.17          40.37
     1.816               -32.3          21.33          31.25          34.24        -0.8698         -8.783          34.81           38.8         -70.82          80.67           40.7
     1.859              -32.48          21.62          31.36          34.62          -1.21         -8.986          36.31          39.46         -71.83          80.05          41.11
     1.903              -32.71          21.99          31.51           35.1         -1.644         -9.245          38.23           40.3         -73.13          79.25          41.64
     1.946              -33.01          22.47           31.7          35.72         -2.203         -9.577           40.7          41.38         -74.78          78.23          42.32
     1.989              -33.39          23.07          31.94           36.5         -2.915          -10.0          43.85          42.76          -76.9          76.92          43.19
     2.032              -33.86          23.83          32.24           37.5         -3.812         -10.54          47.81           44.5         -79.56          75.27          44.28
     2.076              -34.45          24.76          32.61          38.71         -4.904         -11.19          52.64          46.61         -82.81          73.26          45.61
     2.119              -35.12          25.83          33.03          40.11          -6.17         -11.94          58.24          49.06         -86.57          70.94          47.15
     2.162              -35.85          26.99           33.5          41.62         -7.541         -12.76           64.3          51.72         -90.64          68.42          48.82
     2.205              -36.59          28.16          33.96          43.14         -8.912         -13.57          70.36          54.37         -94.72           65.9          50.49
     2.249              -37.26          29.23          34.38          44.54         -10.18         -14.33          75.96          56.82         -98.48          63.58          52.03
     2.292              -37.84          30.16          34.75          45.75         -11.27         -14.98          80.79          58.93         -101.7          61.57          53.36
